<svg xmlns="http://www.w3.org/2000/svg" viewBox="-3.2 -6.4 70.4 86.4" x="0px" y="0px"><path d="m50.296,33.704H13.704c-.552,0-1-.447-1-1v-5.63c0-.553.448-1,1-1h36.593c.552,0,1,.447,1,1v5.63c0,.553-.448,1-1,1Zm-35.593-2h34.593v-3.63H14.704v3.63Z"/><path d="m13.704,28.074c-.224,0-.444-.075-.623-.218-.238-.189-.377-.478-.377-.782v-5.63c0-.466.321-.87.775-.975l36.592-8.444c.297-.066.608.002.848.192.238.189.377.478.377.782v5.63c0,.466-.321.87-.775.975L13.929,28.049c-.075.017-.15.025-.225.025Zm1-5.834v3.577l34.593-7.983v-3.577l-34.593,7.983Z"/><path d="m50.296,52H13.704c-.552,0-1-.447-1-1v-18.296c0-.553.448-1,1-1h36.593c.552,0,1,.447,1,1v18.296c0,.553-.448,1-1,1Zm-35.593-2h34.593v-16.296H14.704v16.296Z"/><path d="m18.77,33.704c-.212,0-.426-.067-.607-.206-.438-.336-.522-.963-.186-1.401l3.905-5.103c.336-.44.963-.521,1.402-.187.438.336.522.963.186,1.401l-3.905,5.103c-.197.258-.494.393-.794.393Z"/><path d="m30.029,33.704c-.212,0-.426-.067-.607-.206-.438-.336-.522-.963-.186-1.401l3.905-5.103c.336-.44.963-.521,1.402-.187.438.336.522.963.186,1.401l-3.905,5.103c-.197.258-.494.393-.794.393Z"/><path d="m41.289,33.704c-.212,0-.426-.067-.607-.206-.438-.336-.522-.963-.186-1.401l3.905-5.103c.336-.44.963-.521,1.402-.187.438.336.522.963.186,1.401l-3.905,5.103c-.197.258-.494.393-.794.393Z"/><path d="m20.121,26.597c-.127,0-.256-.024-.381-.076-.51-.21-.753-.795-.542-1.306l2.209-5.349c.21-.51.795-.754,1.306-.542.51.21.753.795.542,1.306l-2.209,5.349c-.159.386-.532.618-.925.618Z"/><path d="m30.817,24.119c-.127,0-.257-.024-.382-.076-.51-.211-.753-.796-.542-1.306l2.393-5.784c.211-.511.796-.754,1.306-.542.51.211.753.796.542,1.306l-2.393,5.784c-.159.386-.532.618-.924.618Z"/><path d="m41.631,21.356c-.127,0-.256-.024-.381-.075-.51-.211-.753-.796-.542-1.307l2.452-5.939c.21-.51.795-.751,1.306-.543.51.211.753.796.542,1.307l-2.452,5.939c-.159.386-.532.618-.925.618Z"/><path d="m29.185,46.37c-.183,0-.365-.05-.526-.149-.294-.183-.474-.504-.474-.851v-8.444c0-.347.18-.669.474-.851.295-.183.664-.198.973-.044l8.444,4.223c.339.17.553.516.553.895s-.214.725-.553.895l-8.444,4.222c-.141.07-.294.105-.447.105Zm1-7.826v5.208l5.208-2.604-5.208-2.604Z"/><text x="0.0" y="75.2" font-size="3.2" font-weight="bold" font-family="Arbeit Regular, Helvetica, Arial-Unicode, Arial, Sans-serif" fill="#000000">Created by Ian Rahmadi Kurniawan</text><text x="0.0" y="78.4" font-size="3.2" font-weight="bold" font-family="Arbeit Regular, Helvetica, Arial-Unicode, Arial, Sans-serif" fill="#000000">from Noun Project</text></svg>